<svg xmlns="http://www.w3.org/2000/svg" viewBox="0 0 24 24" fill="none">
  <path
    d="m9.6 3 .52 2.08a7.64 7.64 0 0 1 3.76 0L14.4 3h2.2l.53 2.15c.56.23 1.08.54 1.55.92l2.04-.63 1.1 1.9-1.53 1.46c.12.3.21.6.28.91l1.99.85v2.2l-2 .85a8 8 0 0 1-.27.9l1.53 1.47-1.1 1.9-2.04-.64c-.47.39-.99.7-1.55.93L16.6 21h-2.2l-.52-2.08a7.64 7.64 0 0 1-3.76 0L9.6 21H7.4l-.53-2.15a7.4 7.4 0 0 1-1.55-.93l-2.04.64-1.1-1.9 1.53-1.47a8 8 0 0 1-.27-.9l-2-.85v-2.2l2-.85c.06-.31.15-.61.27-.91L2.18 7.34l1.1-1.9 2.04.63c.47-.38.99-.69 1.55-.92L7.4 3zM12 9a3 3 0 1 0 0 6 3 3 0 0 0 0-6"
    fill="currentColor"
  />
</svg>
